<?xml version="1.0" encoding="utf-8"?>
<!-- Generator: Adobe Illustrator 16.0.0, SVG Export Plug-In . SVG Version: 6.00 Build 0)  -->
<!DOCTYPE svg PUBLIC "-//W3C//DTD SVG 1.1//EN" "http://www.w3.org/Graphics/SVG/1.1/DTD/svg11.dtd">
<svg version="1.1" id="Layer_1" xmlns="http://www.w3.org/2000/svg" xmlns:xlink="http://www.w3.org/1999/xlink" x="0px" y="0px"
	 width="766.93px" height="499.33px" viewBox="0 0 566.93 354.33" enable-background="new 0 0 566.93 354.33" xml:space="preserve">
<g>
	<path fill="#3E3A37" d="M50.109,286.936c2.064,0,3.371-1.282,3.371-3.466v-7.947h2.608v7.947c0,3.585-2.278,5.805-5.979,5.805
		c-3.721,0-6.057-2.22-6.057-5.805v-7.947h2.609v7.947C46.662,285.633,48.046,286.936,50.109,286.936z"/>
	<path fill="#3E3A37" d="M68.11,275.522l3.139,10.733l3.115-10.733h2.569l3.137,10.733l3.096-10.733h2.688l-4.516,13.634h-2.709
		l-3.039-10.224l-3.075,10.224h-2.688l-4.518-13.634H68.11z"/>
	<path fill="#3E3A37" d="M122.207,282.342c0,3.914-3.152,6.933-7.263,6.933c-4.109,0-7.266-3.019-7.266-6.933
		c0-3.935,3.156-6.896,7.266-6.896C119.054,275.446,122.207,278.428,122.207,282.342z M110.346,282.342
		c0,2.569,2.125,4.594,4.635,4.594c2.493,0,4.558-2.024,4.558-4.594s-2.064-4.559-4.558-4.559
		C112.452,277.783,110.346,279.772,110.346,282.342z"/>
	<path fill="#3E3A37" d="M134.755,275.522l7.031,9.328v-9.328h2.533v13.634h-2.473l-7.014-9.308v9.308h-2.551v-13.634H134.755z"/>
	<path fill="#3E3A37" d="M158.054,275.522v11.278h5.881v2.355h-8.49v-13.634H158.054z"/>
	<path fill="#3E3A37" d="M176.371,275.522v13.634h-2.609v-13.634H176.371z"/>
	<path fill="#3E3A37" d="M189.975,275.522l7.031,9.328v-9.328h2.533v13.634h-2.473l-7.014-9.308v9.308h-2.551v-13.634H189.975z"/>
	<path fill="#3E3A37" d="M220.655,275.522v2.282h-7.381v3.368h6.623v2.276h-6.623v3.43h7.617v2.277h-10.229v-13.634H220.655z"/>
	<path fill="#3E3A37" d="M246.106,275.522l4.014,10.733l4.053-10.733h2.688l-5.453,13.634h-2.709l-5.393-13.634H246.106z"/>
	<path fill="#3E3A37" d="M276.362,275.522v2.282h-7.381v3.368h6.619v2.276h-6.619v3.43h7.613v2.277h-10.223v-13.634H276.362z"/>
	<path fill="#3E3A37" d="M289.633,275.522v13.634h-2.611v-13.634H289.633z"/>
	<path fill="#3E3A37" d="M303.372,275.522v11.278h5.883v2.355h-8.494v-13.634H303.372z"/>
	<path fill="#3E3A37" d="M321.687,275.522v13.634h-2.609v-13.634H321.687z"/>
	<path fill="#3E3A37" d="M335.292,275.522l7.031,9.328v-9.328h2.531v13.634h-2.471l-7.014-9.308v9.308h-2.551v-13.634H335.292z"/>
	<path fill="#3E3A37" d="M365.234,282.379h2.277v5.123c-1.4,1.051-3.508,1.772-5.393,1.772c-4.074,0-7.211-3.019-7.211-6.933
		s3.197-6.896,7.365-6.896c1.967,0,3.971,0.761,5.336,1.946l-1.482,1.911c-1.031-0.953-2.473-1.54-3.854-1.54
		c-2.633,0-4.695,2.009-4.695,4.578c0,2.591,2.084,4.594,4.715,4.594c0.934,0,2.004-0.33,2.941-0.854V282.379z"/>
	<path fill="#3E3A37" d="M389.291,280.22c0,3.116-1.969,4.924-5.395,4.924h-2.98v4.013h-2.611v-13.634h5.592
		C387.322,275.522,389.291,277.217,389.291,280.22z M386.818,280.297c0-1.678-1.111-2.492-3.061-2.492h-2.842v5.043h2.842
		C385.707,282.848,386.818,282.008,386.818,280.297z"/>
	<path fill="#3E3A37" d="M407.214,286.276h-6.658l-1.205,2.88h-2.709l5.98-13.634h2.703l5.902,13.634h-2.803L407.214,286.276z
		 M406.283,284.036l-2.377-5.728l-2.418,5.728H406.283z"/>
	<path fill="#3E3A37" d="M429.191,289.156l-2.355-4.032c-0.158,0.02-0.312,0.02-0.488,0.02h-3.074v4.013h-2.613v-13.634h5.688
		c3.523,0,5.531,1.694,5.531,4.697c0,2.138-0.953,3.678-2.709,4.42l3.002,4.517H429.191z M423.273,282.848h3.074
		c1.947,0,3.039-0.84,3.039-2.551c0-1.678-1.092-2.492-3.039-2.492h-3.074V282.848z"/>
	<path fill="#3E3A37" d="M452.123,275.522v2.319h-4.248v11.314h-2.627v-11.314h-4.25v-2.319H452.123z"/>
	<path fill="#3E3A37" d="M464.224,275.522l7.029,9.328v-9.328h2.529v13.634h-2.473l-7.01-9.308v9.308h-2.553v-13.634H464.224z"/>
	<path fill="#3E3A37" d="M494.904,275.522v2.282h-7.383v3.368h6.619v2.276h-6.619v3.43h7.613v2.277h-10.223v-13.634H494.904z"/>
	<path fill="#3E3A37" d="M514.095,289.156l-2.359-4.032c-0.154,0.02-0.309,0.02-0.484,0.02h-3.078v4.013h-2.611v-13.634h5.689
		c3.523,0,5.527,1.694,5.527,4.697c0,2.138-0.953,3.678-2.705,4.42l2.998,4.517H514.095z M508.173,282.848h3.078
		c1.947,0,3.035-0.84,3.035-2.551c0-1.678-1.088-2.492-3.035-2.492h-3.078V282.848z"/>
</g>
<path fill="#3E3A37" d="M63.708,232.649c0-2.045-1.557-3.227-4.299-3.227c-3.064,0-6.933,1.829-10.427,4.787l-3.709-7.259
	c4.84-3.548,10.106-5.698,15.589-5.698c7.631,0,13.168,3.979,13.168,9.946c0,4.081-3.121,8.329-7.312,12.574l-7.738,7.738h16.123
	v7.902h-28.7l-0.053-6.504l13.706-14.082C62.151,236.682,63.708,234.262,63.708,232.649z"/>
<path fill="#3E3A37" d="M110.084,219.533v39.881h-9.568v-3.764c-1.986,2.688-4.944,4.138-8.597,4.138
	c-8.172,0-13.543-6.016-13.543-15.046c0-8.867,5.318-14.729,13.326-14.729c3.764,0,6.772,1.507,8.813,4.139v-14.619H110.084z
	 M100.516,245.012c0-4.354-2.525-7.26-6.233-7.26c-3.76,0-6.287,2.958-6.287,7.26c0,4.296,2.527,7.254,6.287,7.254
	C97.991,252.266,100.516,249.308,100.516,245.012z"/>
<path fill="#3E3A37" d="M145.119,247.431H124.91c0.914,3.275,3.334,5.104,6.613,5.104c2.471,0,4.891-1.022,6.826-2.957l4.996,5.003
	c-2.955,3.33-7.311,5.156-12.682,5.156c-9.516,0-15.372-5.857-15.372-14.725c0-9.03,6.071-14.998,15.155-14.998
	C140.605,230.014,145.765,236.84,145.119,247.431z M135.876,242.323c0-3.332-2.15-5.588-5.377-5.588
	c-3.115,0-5.158,2.256-5.805,5.588H135.876z"/>
<path fill="#3E3A37" d="M180.103,241.089v18.325h-9.568v-15.588c0-3.275-1.883-5.319-4.945-5.319
	c-3.547,0.053-5.695,2.741-5.695,6.558v14.35h-9.566v-39.881h9.566v15.536c2.041-3.333,5.373-5.108,9.619-5.108
	C175.912,229.961,180.103,234.262,180.103,241.089z"/>
<path fill="#3E3A37" d="M212.395,240.494v18.92h-9.406v-3.279c-1.881,2.42-4.836,3.711-8.762,3.711
	c-6.232,0-9.942-3.763-9.942-9.083c0-5.535,3.923-8.709,11.126-8.813h7.578v-0.327c0-2.737-1.881-4.35-5.535-4.35
	c-2.418,0-5.59,0.807-8.707,2.31l-2.632-6.447c4.565-2.046,8.759-3.174,13.542-3.174
	C207.667,229.961,212.342,233.83,212.395,240.494z M202.989,249.577v-2.524h-5.699c-2.686,0-4.027,0.969-4.027,3.009
	c0,1.988,1.449,3.279,3.924,3.279C200.032,253.341,202.399,251.781,202.989,249.577z"/>
<path fill="#3E3A37" d="M248.559,241.089v18.325h-9.512v-15.588c0-3.275-1.936-5.319-4.945-5.319
	c-3.225,0.053-5.322,2.257-5.695,5.534v15.373h-9.568v-29.078h9.568v4.733c2.039-3.333,5.371-5.108,9.619-5.108
	C244.368,229.961,248.559,234.262,248.559,241.089z"/>
<path fill="#3E3A37" d="M284.401,219.533v39.881h-9.564v-3.764c-1.99,2.688-4.945,4.138-8.602,4.138
	c-8.168,0-13.545-6.016-13.545-15.046c0-8.867,5.32-14.729,13.33-14.729c3.76,0,6.77,1.507,8.816,4.139v-14.619H284.401z
	 M274.836,245.012c0-4.354-2.529-7.26-6.238-7.26c-3.764,0-6.289,2.958-6.289,7.26c0,4.296,2.525,7.254,6.289,7.254
	C272.307,252.266,274.836,249.308,274.836,245.012z"/>
<path fill="#3E3A37" d="M302.129,236.572c-1.613,0-2.742,0.591-2.742,1.828c0,3.816,15.265,1.987,15.21,12.093
	c0,5.964-5.214,9.353-12.308,9.353c-4.889,0-9.564-1.397-13.113-4.139l3.01-6.183c3.332,2.313,7.094,3.601,10.318,3.601
	c1.775,0,3.064-0.591,3.064-1.771c0-3.979-14.996-1.987-14.996-12.04c0-6.073,5.107-9.405,11.932-9.405
	c4.193,0,8.438,1.181,12.093,3.385l-3.225,6.235C307.772,237.647,304.495,236.572,302.129,236.572z"/>
<path fill="#695530" d="M345.607,240.494v18.92h-9.408v-3.279c-1.881,2.42-4.836,3.711-8.76,3.711c-6.236,0-9.943-3.763-9.943-9.083
	c0-5.535,3.924-8.709,11.125-8.813h7.578v-0.327c0-2.737-1.881-4.35-5.535-4.35c-2.418,0-5.59,0.807-8.707,2.31l-2.635-6.447
	c4.57-2.046,8.762-3.174,13.545-3.174C340.875,229.961,345.55,233.83,345.607,240.494z M336.199,249.577v-2.524h-5.695
	c-2.689,0-4.033,0.969-4.033,3.009c0,1.988,1.451,3.279,3.924,3.279C333.244,253.341,335.607,251.781,336.199,249.577z"/>
<path fill="#695530" d="M380.427,230.336v29.078h-9.568v-4.729c-1.988,3.386-5.16,5.104-9.299,5.161
	c-6.289,0-10.373-4.354-10.373-11.127v-18.383h9.566v15.641c0,3.279,1.83,5.267,4.676,5.267c3.385-0.053,5.43-2.741,5.43-6.554
	v-14.354H380.427z"/>
<path fill="#695530" d="M406.646,257.91c-2.098,1.235-4.998,1.936-7.85,1.936c-5.641,0.053-9.727-3.278-9.727-9.299v-12.468h-4.033
	v-6.343h4.033v-8.064h9.51v8.064h7.527v6.343h-7.527v10.961c0,2.15,0.971,3.119,2.637,3.066c0.969,0,2.203-0.378,3.602-0.969
	L406.646,257.91z"/>
<path fill="#695530" d="M440.449,244.849c0,8.977-6.342,14.888-15.91,14.888s-15.855-5.911-15.855-14.888
	c0-8.921,6.287-14.835,15.855-14.835S440.449,235.928,440.449,244.849z M418.302,244.958c0,4.35,2.529,7.255,6.236,7.255
	c3.764,0,6.289-2.905,6.289-7.255c0-4.301-2.525-7.206-6.289-7.206C420.832,237.752,418.302,240.657,418.302,244.958z"/>
<path fill="#3E3A37" d="M452.855,255.17c0,2.74-1.934,4.676-4.623,4.676c-2.688,0-4.568-1.936-4.568-4.676
	c0-2.741,1.881-4.623,4.568-4.623C450.921,250.547,452.855,252.429,452.855,255.17z"/>
<path fill="#3E3A37" d="M490.421,245.012c0,8.867-5.271,14.725-13.33,14.725c-3.707,0-6.717-1.451-8.764-4.086v3.764h-9.562v-39.881
	h9.562v14.565c2.047-2.63,4.945-4.085,8.547-4.085C484.992,230.014,490.421,235.981,490.421,245.012z M480.8,244.795
	c0-4.301-2.529-7.254-6.287-7.254c-3.658,0-6.186,2.953-6.186,7.254c0,4.302,2.527,7.201,6.186,7.201
	C478.271,251.996,480.8,249.097,480.8,244.795z"/>
<path fill="#3E3A37" d="M522.824,247.431h-20.211c0.916,3.275,3.336,5.104,6.611,5.104c2.471,0,4.891-1.022,6.826-2.957l4.996,5.003
	c-2.953,3.33-7.307,5.156-12.684,5.156c-9.51,0-15.371-5.857-15.371-14.725c0-9.03,6.076-14.998,15.16-14.998
	C518.306,230.014,523.466,236.84,522.824,247.431z M513.578,242.323c0-3.332-2.15-5.588-5.373-5.588
	c-3.119,0-5.16,2.256-5.805,5.588H513.578z"/>
<g>
	<path fill="#695530" d="M278.633,141.538v-4.832h12.742c-0.377-11.726-3.477-22.773-8.709-32.521l-10.938,6.314l-2.416-4.185
		l10.926-6.307c-6.012-9.638-14.172-17.798-23.809-23.812l-6.377,11.044l-4.184-2.416l6.383-11.057
		c-9.748-5.233-20.797-8.333-32.525-8.711v12.61h-4.832V65.057c-11.727,0.378-22.773,3.479-32.522,8.712l6.315,10.939l-4.185,2.416
		l-6.308-10.926c-9.638,6.013-17.796,14.173-23.809,23.811l11.042,6.375l-2.416,4.185l-11.055-6.382
		c-5.231,9.748-8.332,20.795-8.709,32.521h12.742v4.832H143.25c1.281,39.758,34.001,71.711,74.065,71.711
		c40.063,0,72.779-31.953,74.061-71.711H278.633z M217.315,184.489c-25.018,0-45.366-20.354-45.366-45.367
		c0-25.017,20.349-45.37,45.366-45.37c25.014,0,45.367,20.354,45.367,45.37C262.682,164.136,242.329,184.489,217.315,184.489z"/>
	
		<rect x="202.975" y="80.88" transform="matrix(0.866 -0.5 0.5 0.866 -31.7173 118.5726)" fill="#3E3A37" width="4.831" height="75.178"/>
</g>
</svg>
